<?xml version="1.0" encoding="UTF-8"?>
<!DOCTYPE svg PUBLIC "-//W3C//DTD SVG 1.1//EN" "http://www.w3.org/Graphics/SVG/1.1/DTD/svg11.dtd">
<svg xmlns="http://www.w3.org/2000/svg" version="1.1" width="512px" height="512px" style="shape-rendering:geometricPrecision; text-rendering:geometricPrecision; image-rendering:optimizeQuality; fill-rule:evenodd; clip-rule:evenodd" xmlns:xlink="http://www.w3.org/1999/xlink">
<g><path style="opacity:0.989" fill="#000000" d="M 99.5,41.5 C 189.167,41.3333 278.834,41.5 368.5,42C 400.309,46.8082 419.475,64.9749 426,96.5C 426.822,159.528 426.656,222.528 425.5,285.5C 420.768,283.304 416.102,280.804 411.5,278C 392.167,265 372.833,252 353.5,239C 345.694,233.454 337.694,233.121 329.5,238C 298.232,257.217 266.732,276.051 235,294.5C 217.26,283.379 199.76,271.879 182.5,260C 178.672,257.613 174.505,256.446 170,256.5C 127.287,266.97 84.7872,278.303 42.5,290.5C 42.1667,258.667 41.8333,226.833 41.5,195C 41.3577,160.805 41.8577,126.638 43,92.5C 51.3238,63.6685 70.1571,46.6685 99.5,41.5 Z M 151.5,128.5 C 180.773,127.604 193.273,141.604 189,170.5C 180.619,187.604 167.119,193.771 148.5,189C 128.665,178.519 123.498,163.019 133,142.5C 137.848,136.003 144.015,131.336 151.5,128.5 Z"/></g>
<g><path style="opacity:0.984" fill="#000000" d="M 338.5,280.5 C 340.308,280.491 341.975,280.991 343.5,282C 353.637,288.638 363.637,295.471 373.5,302.5C 323.788,322.53 298.288,359.53 297,413.5C 294.5,418.667 290.667,422.5 285.5,425C 222.558,426.656 159.558,426.989 96.5,426C 65.4354,419.602 47.2687,400.769 42,369.5C 41.1789,357.258 41.3456,345.091 42.5,333C 83.5439,321.989 124.544,310.822 165.5,299.5C 184.547,311.041 203.214,323.207 221.5,336C 229.329,341.42 237.329,341.754 245.5,337C 276.564,318.141 307.564,299.308 338.5,280.5 Z"/></g>
<g><path style="opacity:0.978" fill="#000000" d="M 399.5,340.5 C 412.671,338.829 421.505,344.163 426,356.5C 426.5,365.494 426.666,374.494 426.5,383.5C 435.839,383.334 445.173,383.5 454.5,384C 469.473,391.924 472.973,403.424 465,418.5C 461.731,421.883 457.897,424.383 453.5,426C 444.506,426.5 435.506,426.666 426.5,426.5C 426.666,435.506 426.5,444.506 426,453.5C 422.607,463.79 415.441,469.124 404.5,469.5C 394.551,468.774 387.717,463.774 384,454.5C 383.5,445.173 383.334,435.839 383.5,426.5C 373.42,426.923 363.42,426.423 353.5,425C 340.237,417.206 337.071,406.372 344,392.5C 346.962,388.544 350.796,385.711 355.5,384C 364.827,383.5 374.161,383.334 383.5,383.5C 383.074,373.088 383.574,362.754 385,352.5C 388.399,346.724 393.232,342.724 399.5,340.5 Z"/></g>
</svg>
