<?xml version="1.0" encoding="UTF-8"?>
<!DOCTYPE svg PUBLIC "-//W3C//DTD SVG 1.1//EN" "http://www.w3.org/Graphics/SVG/1.1/DTD/svg11.dtd">
<svg xmlns="http://www.w3.org/2000/svg" version="1.1" width="512px" height="512px" style="shape-rendering:geometricPrecision; text-rendering:geometricPrecision; image-rendering:optimizeQuality; fill-rule:evenodd; clip-rule:evenodd" xmlns:xlink="http://www.w3.org/1999/xlink">
<g><path style="opacity:0.991" fill="#000000" d="M 56.5,-0.5 C 118.5,-0.5 180.5,-0.5 242.5,-0.5C 242.333,24.5022 242.5,49.5022 243,74.5C 245.542,100.709 259.708,116.543 285.5,122C 310.498,122.5 335.498,122.667 360.5,122.5C 360.5,154.5 360.5,186.5 360.5,218.5C 316.539,215.654 277.873,228.487 244.5,257C 194.167,257.333 143.833,257.667 93.5,258C 86.8333,263.333 86.8333,268.667 93.5,274C 138.167,274.333 182.833,274.667 227.5,275C 217.474,287.388 209.474,301.055 203.5,316C 166.833,316.333 130.167,316.667 93.5,317C 88.9315,319.541 87.4315,323.375 89,328.5C 90.5429,330.378 92.3762,331.878 94.5,333C 128.832,333.5 163.165,333.667 197.5,333.5C 190.547,362.71 191.38,391.71 200,420.5C 201.642,425.097 203.476,429.597 205.5,434C 156.167,434.667 106.833,434.667 57.5,434C 40.4433,429.944 29.61,419.444 25,402.5C 24.3333,278.833 24.3333,155.167 25,31.5C 29.7091,14.9586 40.2091,4.29191 56.5,-0.5 Z M 94.5,199.5 C 134.835,199.333 175.168,199.5 215.5,200C 219.821,201.157 222.154,203.991 222.5,208.5C 221.592,213.575 218.592,216.408 213.5,217C 174.833,217.667 136.167,217.667 97.5,217C 90.0763,215.992 87.2429,211.825 89,204.5C 90.7297,202.598 92.563,200.931 94.5,199.5 Z"/></g>
<g><path style="opacity:0.965" fill="#000000" d="M 260.5,13.5 C 263.394,14.8823 265.894,16.8823 268,19.5C 294.384,47.7621 320.884,75.9288 347.5,104C 326.167,104.667 304.833,104.667 283.5,104C 271.149,100.314 263.649,92.1477 261,79.5C 260.5,57.5025 260.333,35.5025 260.5,13.5 Z"/></g>
<g><path style="opacity:0.988" fill="#000000" d="M 364.5,511.5 C 353.833,511.5 343.167,511.5 332.5,511.5C 274.126,502.209 235.293,469.542 216,413.5C 200.709,349.965 218.876,298.465 270.5,259C 322.5,227.667 374.5,227.667 426.5,259C 478.124,298.465 496.291,349.965 481,413.5C 461.669,469.553 422.836,502.22 364.5,511.5 Z M 345.5,318.5 C 351.345,317.668 355.179,320.001 357,325.5C 357.5,338.829 357.667,352.163 357.5,365.5C 370.504,365.333 383.504,365.5 396.5,366C 405.297,370.024 406.297,375.358 399.5,382C 398.167,382.333 396.833,382.667 395.5,383C 382.838,383.5 370.171,383.667 357.5,383.5C 357.667,396.504 357.5,409.504 357,422.5C 354.67,429.463 350.17,431.296 343.5,428C 341.683,426.2 340.516,424.034 340,421.5C 339.5,408.838 339.333,396.171 339.5,383.5C 326.829,383.667 314.162,383.5 301.5,383C 293.186,380.875 291.02,376.042 295,368.5C 296.419,367.54 297.919,366.707 299.5,366C 312.829,365.5 326.163,365.333 339.5,365.5C 339.333,352.496 339.5,339.496 340,326.5C 340.625,322.891 342.458,320.224 345.5,318.5 Z"/></g>
</svg>
