<?xml version="1.0" encoding="UTF-8"?>
<!DOCTYPE svg PUBLIC "-//W3C//DTD SVG 1.1//EN" "http://www.w3.org/Graphics/SVG/1.1/DTD/svg11.dtd">
<svg xmlns="http://www.w3.org/2000/svg" version="1.1" width="512px" height="512px" style="shape-rendering:geometricPrecision; text-rendering:geometricPrecision; image-rendering:optimizeQuality; fill-rule:evenodd; clip-rule:evenodd" xmlns:xlink="http://www.w3.org/1999/xlink">
<g><path style="opacity:0.991" fill="#000000" d="M 239.5,15.5 C 296.677,11.3346 339.843,33.668 369,82.5C 384.441,113.548 387.775,145.882 379,179.5C 361.55,231.618 325.717,262.118 271.5,271C 214.402,275.491 171.236,253.324 142,204.5C 126.559,173.452 123.225,141.118 132,107.5C 149.618,55.3708 185.452,24.7041 239.5,15.5 Z"/></g>
<g><path style="opacity:0.991" fill="#000000" d="M 151.5,266.5 C 158.503,269.977 165.169,274.144 171.5,279C 224.069,309.204 277.402,310.704 331.5,283.5C 331.833,283.833 332.167,284.167 332.5,284.5C 329.587,290.487 328.087,296.82 328,303.5C 327.5,311.493 327.334,319.493 327.5,327.5C 316.464,327.252 305.464,327.752 294.5,329C 266.923,337.254 254.423,355.754 257,384.5C 262.167,404.333 274.667,416.833 294.5,422C 305.464,423.248 316.464,423.748 327.5,423.5C 327.252,434.536 327.752,445.536 329,456.5C 335.438,480.271 350.938,493.104 375.5,495C 278.833,495.667 182.167,495.667 85.5,495C 65.6667,489.833 53.1667,477.333 48,457.5C 46.4507,373.91 80.9507,310.243 151.5,266.5 Z"/></g>
<g><path style="opacity:0.989" fill="#000000" d="M 369.5,287.5 C 379.36,285.35 386.527,288.683 391,297.5C 391.5,318.164 391.667,338.831 391.5,359.5C 412.169,359.333 432.836,359.5 453.5,360C 460.487,362.807 463.82,367.973 463.5,375.5C 463.82,383.027 460.487,388.193 453.5,391C 432.836,391.5 412.169,391.667 391.5,391.5C 391.667,412.169 391.5,432.836 391,453.5C 388.193,460.487 383.027,463.82 375.5,463.5C 367.973,463.82 362.807,460.487 360,453.5C 359.5,432.836 359.333,412.169 359.5,391.5C 338.831,391.667 318.164,391.5 297.5,391C 290.513,388.193 287.18,383.027 287.5,375.5C 287.18,367.973 290.513,362.807 297.5,360C 318.164,359.5 338.831,359.333 359.5,359.5C 359.333,338.831 359.5,318.164 360,297.5C 362.022,292.98 365.189,289.647 369.5,287.5 Z"/></g>
</svg>
