<?xml version="1.0" encoding="UTF-8"?>
<!DOCTYPE svg PUBLIC "-//W3C//DTD SVG 1.1//EN" "http://www.w3.org/Graphics/SVG/1.1/DTD/svg11.dtd">
<svg xmlns="http://www.w3.org/2000/svg" version="1.1" width="512px" height="512px" style="shape-rendering:geometricPrecision; text-rendering:geometricPrecision; image-rendering:optimizeQuality; fill-rule:evenodd; clip-rule:evenodd" xmlns:xlink="http://www.w3.org/1999/xlink">
<g><path style="opacity:0.988" fill="#000000" d="M 511.5,458.5 C 511.5,461.833 511.5,465.167 511.5,468.5C 507.115,474.434 501.449,475.934 494.5,473C 474.833,453.333 455.167,433.667 435.5,414C 434.5,413.333 433.5,413.333 432.5,414C 404.505,433.132 374.505,436.799 342.5,425C 328.86,419.031 317.193,410.364 307.5,399C 271.523,399.287 235.523,399.62 199.5,400C 170.799,401.783 145.465,411.783 123.5,430C 112.833,440.667 102.167,451.333 91.5,462C 83.3776,465.602 77.5443,463.435 74,455.5C 73.5,435.169 73.3334,414.836 73.5,394.5C 63.1532,393.896 52.8198,393.063 42.5,392C 19.6259,386.292 5.2926,372.125 -0.5,349.5C -0.5,261.833 -0.5,174.167 -0.5,86.5C 4.80189,65.0297 18.1352,51.1964 39.5,45C 167.459,34.0375 295.459,33.7042 423.5,44C 449.565,49.3984 464.732,65.2317 469,91.5C 469.667,177.167 469.667,262.833 469,348.5C 467.441,366.354 461.274,382.354 450.5,396.5C 470.882,417.214 491.215,437.881 511.5,458.5 Z M 113.5,149.5 C 193.834,149.333 274.167,149.5 354.5,150C 361.782,153.821 363.282,159.321 359,166.5C 357.581,167.46 356.081,168.293 354.5,169C 274.167,169.667 193.833,169.667 113.5,169C 104.248,162.507 104.248,156.007 113.5,149.5 Z M 116.5,207.5 C 194.834,207.333 273.167,207.5 351.5,208C 360.487,209.809 363.321,214.975 360,223.5C 358.363,225.81 356.196,227.31 353.5,228C 273.833,228.667 194.167,228.667 114.5,228C 106.556,224.301 104.889,218.801 109.5,211.5C 111.525,209.436 113.858,208.102 116.5,207.5 Z M 114.5,266.5 C 155.168,266.333 195.835,266.5 236.5,267C 244.444,270.699 246.111,276.199 241.5,283.5C 239.705,285.703 237.371,286.869 234.5,287C 195.167,287.667 155.833,287.667 116.5,287C 107.43,284.452 104.93,278.952 109,270.5C 110.812,269.023 112.645,267.69 114.5,266.5 Z M 377.5,271.5 C 414.541,274.098 437.374,293.431 446,329.5C 449.33,363.685 435.83,388.518 405.5,404C 366.587,416.7 336.754,405.533 316,370.5C 303.145,337.423 309.978,309.257 336.5,286C 348.903,277.257 362.57,272.423 377.5,271.5 Z"/></g>
</svg>
