<?xml version="1.0" encoding="utf-8"?>
<!-- Generator: Adobe Illustrator 27.5.0, SVG Export Plug-In . SVG Version: 6.00 Build 0)  -->
<svg version="1.1" id="Layer_1" xmlns="http://www.w3.org/2000/svg" xmlns:xlink="http://www.w3.org/1999/xlink" x="0px" y="0px"
	 viewBox="0 0 4000 4000" style="enable-background:new 0 0 4000 4000;" xml:space="preserve">
<g>
	<g>
		<rect style="fill:none;" width="4000" height="4000"/>
	</g>
	<g>
		<g>
			<g>
				<path style="fill:#FFFFFF;" d="M2535.729,2291.814c203.448-29.585-65.336-445.392-272.046-497.679l-59.206,6.555
					l294.177,491.123H2535.729z"/>
			</g>
			<g>
				<path style="fill:#E2DEDE;" d="M2470.44,2159.67c35.794-90.558-10.055-174.156-83.72-247.355
					C2429.957,1995.572,2458.876,2055.703,2470.44,2159.67z"/>
			</g>
			<g>
				<path style="fill:#3A3A3A;" d="M2535.729,2304.251h-37.073c-4.373,0-8.423-2.295-10.669-6.045l-294.177-491.125
					c-2.178-3.633-2.356-8.125-0.474-11.919c1.882-3.792,5.564-6.367,9.773-6.833l59.204-6.555c1.489-0.161,2.976-0.056,4.419,0.303
					c75.068,18.989,164.929,86.597,240.378,180.85c73.198,91.438,116.597,188.313,113.262,252.82
					c-2.566,49.595-31.99,80.981-82.854,88.379C2536.925,2304.208,2536.327,2304.251,2535.729,2304.251z M2505.704,2279.378h29.104
					c38.904-5.928,58.77-27.168,60.723-64.917c6.248-120.796-178.096-366.748-332.751-407.715l-37.676,4.172L2505.704,2279.378z"/>
			</g>
			<g>
				<g>
					<path style="fill:#FFFFFF;" d="M2537.962,2528.112c-5.037,27.859-30.223,40.98-98.068,48.816
						c-0.684,0.125-1.679,0.187-2.923,0.311c-18.345,2.115-39.737,3.793-64.612,5.286c-44.028,2.985-78.106-1.119-102.794-12.873
						c-22.947-10.945-37.747-28.419-44.899-52.858c-4.042-13.805-5.659-29.787-4.913-48.07l45.023-59.45l190.85-252.29
						c88.305,99.312,125.492,199.369,23.134,301.604C2516.819,2460.764,2543.87,2495.464,2537.962,2528.112z"/>
				</g>
				<g>
					<path style="fill:#E2DEDE;" d="M2439.894,2576.928c0.684,0,1.057-0.062,1.057-0.062
						c-67.659,10.385-129.845,14.116-171.385-7.213c-20.708-10.634-36.255-27.487-44.899-52.858
						c-4.042-13.805-5.659-29.787-4.913-48.07l45.023-59.45c61.44,2.612,130.467-21.516,163.301-74.561
						c-7.649,12.873-55.035,94.026-36.255,112.744c20.335,20.397,72.82,11.132,72.82,11.132s-55.284,37-135.753,23.133
						c0,0-38.804,19.9-20.335,63.554c16.417,38.866,108.204,33.581,128.414,31.964
						C2438.215,2577.115,2439.21,2577.052,2439.894,2576.928z"/>
				</g>
				<g>
					<path style="fill:#3A3A3A;" d="M2346.17,2595.921c-49.956,0-85.669-10.996-108.657-33.364
						c-22.051-21.46-31.929-52.31-30.198-94.316c0.105-2.529,0.979-4.971,2.51-6.992l235.896-311.753
						c2.246-2.969,5.706-4.775,9.424-4.922c3.784-0.078,7.312,1.382,9.788,4.16c65.969,74.175,139.636,184.785,37.759,302.422
						c12.813,4.927,24.226,13.242,32.9,24.258c12.693,16.113,18.015,36.133,14.602,54.927c-8.472,46.65-61.47,57.637-177.063,64.614
						C2363.719,2595.599,2354.735,2595.921,2346.17,2595.921z M2232.047,2473.104c-0.73,32.534,6.748,55.991,22.815,71.626
						c21.567,20.986,59.729,29.292,116.67,25.4c113.271-6.836,149.272-17.173,154.189-44.233
						c2.139-11.787-1.384-24.575-9.668-35.093c-9.25-11.743-23.098-18.965-37.993-19.81c-4.895-0.278-9.17-3.408-10.916-7.988
						c-1.748-4.58-0.637-9.761,2.832-13.228c81.152-81.06,77.129-165.679-13.677-273.042L2232.047,2473.104z"/>
				</g>
				<g>
					<path style="fill:#3A3A3A;" d="M2486.347,2468.438c-25.481,14.652-55.263,17.875-83.177,13.274
						c-3.733-0.198-6.713-3.45-6.074-7.234c0.491-3.064,3.154-5.237,6.166-5.203c25.35,0.258,50.27-6.346,69.232-21.572
						C2486.781,2437.406,2501.355,2459.145,2486.347,2468.438L2486.347,2468.438z"/>
				</g>
				<g>
					<path style="fill:#3A3A3A;" d="M2442.944,2565.094c15.136-10.717,17.163-25.768,17.069-43.741
						c0.035-1.465,1.25-2.626,2.716-2.595c0.997,0.024,1.855,0.598,2.291,1.421c2.312,4.409,3.892,9.224,4.668,14.321
						c3.048,15.934-5.895,34.214-21.397,40.046c-2.801,1.138-5.994-0.21-7.133-3.01
						C2440.199,2569.182,2441,2566.543,2442.944,2565.094L2442.944,2565.094z"/>
				</g>
				<g>
					<path style="fill:#3A3A3A;" d="M2488.272,2558.309c15.139-10.716,17.159-25.767,17.07-43.74
						c0.034-1.465,1.25-2.627,2.716-2.593c0.997,0.022,1.855,0.596,2.29,1.421c2.313,4.407,3.893,9.224,4.668,14.322
						c3.05,15.931-5.896,34.214-21.396,40.044c-2.801,1.138-5.996-0.21-7.133-3.01
						C2485.528,2562.396,2486.33,2559.761,2488.272,2558.309L2488.272,2558.309z"/>
				</g>
			</g>
			<g>
				<g>
					<path style="fill:#FFFFFF;" d="M2429.136,2333.033c-6.716,15.174-14.489,29.725-23.382,43.406
						c-20.957,32.586-47.821,60.445-80.656,81.278c-62.062,25.621-123.315,38.68-183.636,38.68h-2.176
						c-39.861-0.186-79.35-6.094-118.465-17.847c-147.008-68.716-201.421-191.223-193.337-350.047l100.493-237.738l20.211-47.821
						l80.842-71.639l217.217,29.414c5.845,2.488,11.629,5.099,17.226,7.836C2449.098,1900.217,2506.309,2159.782,2429.136,2333.033z
						"/>
				</g>
				<g>
					<path style="fill:#E2DEDE;" d="M2428.079,2334.712c-3.171,5.348-13.059,22.325-22.325,41.727
						c-20.957,32.586-47.821,60.445-80.656,81.278c-62.062,25.621-123.315,38.68-183.636,38.68h-2.176l-43.593-26.242
						c0,0,57.149-32.648,56.838-121.574C2187.169,2432.158,2368.007,2431.598,2428.079,2334.712z"/>
				</g>
				<g>
					<path style="fill:#E2DEDE;" d="M2263.472,1808.554c-81.775,83.703-269.764,127.171-335.495,82.21l20.211-47.821l80.842-71.639
						l217.217,29.414C2252.092,1803.206,2257.875,1805.818,2263.472,1808.554z"/>
				</g>
				<g>
					<path style="fill:#3A3A3A;" d="M2252.62,1811.292c-74.248-6.874-151.527-15.852-225.709-25.2c0,0,11.99-3.606,11.99-3.606
						c-19.833,18.335-60.061,54.351-80.106,72.403c0,0,3.303-4.085,3.303-4.085c-57.625,114.029-118.408,243.693-111.544,373.461
						c10.157,106.639,94.542,190.381,185.084,239.267c73.581,27.181,183.179,17.38,258.952-5.299
						c20.631-6.532,40.727-14.831,58.463-26.679c3.434-2.365,8.159-1.453,10.471,2.017c2.074,3.103,1.521,7.195-1.134,9.654
						c-8.719,8.088-18.476,14.822-28.562,20.798c-30.058,17.836-63.797,28.736-97.647,36.167
						c-68.394,13.708-147.433,18.581-214.035-6.732c-80.676-42.849-152.804-109.987-186.44-196.742
						c-41.74-111.998-1.163-232.898,39.735-338.272c8.608-21.074,17.802-41.875,27.487-62.444
						c9.912-20.552,20.049-40.61,31.409-60.884c0.87-1.564,2.031-2.963,3.303-4.084c20.424-17.745,61.201-53.602,81.818-71.157
						c3.315-2.867,7.633-3.936,11.648-3.311c33.182,5.259,79.433,12.733,112.02,18.477c37.329,6.33,74.603,12.946,111.774,20.203
						C2264.801,1797.52,2262.73,1811.949,2252.62,1811.292L2252.62,1811.292z"/>
				</g>
				<g>
					<path style="fill:#3A3A3A;" d="M2338.982,1851.964c113.885,98.473,166.022,296.296,118.477,438.814
						c-7.601,21.614-17.858,42.402-31.585,60.669c-2.004,2.669-5.791,3.206-8.458,1.201c-2.187-1.643-2.947-4.494-2.035-6.931
						c68.563-175.694,28.004-339.297-85.793-484.81C2324.842,1854.969,2333.031,1846.755,2338.982,1851.964L2338.982,1851.964z"/>
				</g>
			</g>
			<g>
				<path style="fill:#FFFFFF;" d="M1809.948,2212.131c-20.676,110.517-3.808,208.907,62.277,291.402
					c-10.731,59.735,12.531,94.576,78.614,98.059h163.74c53.655-14.801,48.104-122.111-31.453-123.036
					c104.535-42.554,94.359-296.013-53.655-334.881"/>
			</g>
			<g>
				<path style="fill:#E2DEDE;" d="M1996.395,2008.728c0,0-91.799,137.075-90.565,273.727
					c1.233,136.652,130.127,196.1,130.127,196.1s-80.173,34.911-80.173,69.447c0,34.537,160.965,40.087,160.965,40.087
					l-21.058,13.502h-147.333c-58.482-2.875-85.827-32.609-76.133-94.293l-1.916-17.885c9.444-58.088,2.315-100.558-36.649-113.024
					c15.062-44.278,19.588-96.515,0-166.969C1884.442,2164.59,1938.14,2101.176,1996.395,2008.728z"/>
			</g>
			<g>
				<path style="fill:#3A3A3A;" d="M1822.173,2214.417c-19.463,97.513-4.615,203.361,59.924,281.208
					c2.369,2.97,3.194,6.672,2.575,10.145c-11.05,58.921,16.74,83.117,73.898,83.244c-0.001,0,156.008,0.061,156.008,0.061
					l-3.328,0.452c10.135-2.754,18.075-10.903,22.339-21.924c8.531-21.787,2.033-51.376-16.85-65.757
					c-9.153-7.319-21.166-10.542-33.758-10.85c-6.885-0.159-12.339-5.869-12.181-12.754c0.116-5.059,3.26-9.356,7.635-11.211
					c28.445-11.959,45.666-41.37,53.828-70.735c16.822-62.192,7.387-134.185-27.94-188.645
					c-17.771-27.344-44.166-49.019-75.97-59.724c-5.126-1.568-3.105-9.603,2.234-8.506c73.458,13.86,119.292,86.539,130.289,156.17
					c11.544,69.023-1.803,162.236-73.059,194.487c-0.001-0.001-4.547-23.965-4.547-23.965c35.95-0.545,68.403,24.04,76.355,59.549
					c9.094,33.584-4.888,78.057-41.72,87.992c-1.083,0.301-2.254,0.444-3.328,0.452l-156.641,0.061l-4.895,0.002
					c-71.234-1.835-106.563-42.485-93.265-112.874c-0.001,0,2.576,10.142,2.576,10.142c-16.626-20.767-31.034-43.481-42.306-67.73
					c-11.317-24.221-19.434-49.912-24.434-76.084c-10.068-52.478-7.526-106.269,2.108-157.781c1.263-6.753,7.76-11.201,14.513-9.939
					C1818.987,2201.167,1823.437,2207.664,1822.173,2214.417L1822.173,2214.417z"/>
			</g>
			<g>
				<path style="fill:#FFFFFF;" d="M2017.836,1974.405c-68.716,113.241-144.086,206.21-223.809,286.119l-191.969-195.949
					c117.657-60.072,222.192-130.404,304.216-204.095v-0.062c21.952-19.651,42.287-39.613,60.88-59.699l31.528,107.955
					L2017.836,1974.405z"/>
			</g>
			<g>
				<path style="fill:#E2DEDE;" d="M1998.682,1908.674c-48.07-1.119-84.635-16.044-92.409-48.194v-0.062
					c21.952-19.651,42.287-39.613,60.88-59.699L1998.682,1908.674z"/>
			</g>
			<g>
				<path style="fill:#3A3A3A;" d="M1976.314,1809.134c-104.715,111.55-233.492,196.749-368.591,266.524
					c0-0.001,3.228-19.781,3.228-19.781c0.002,0.014,191.979,195.949,191.984,195.962c0,0-17.69-0.078-17.69-0.078
					c84.646-86.139,159.505-180.83,228.826-279.659c2.959-4.319,10.049-0.229,7.519,4.561
					c-13.842,27.197-29.304,53.537-45.555,79.409c-49.488,77.197-107.617,149.1-173.175,213.252
					c-4.899,4.913-12.879,4.9-17.708-0.093l-191.969-195.948c-4.807-4.907-4.727-12.781,0.181-17.588
					c66.983-35.953,133.511-73.475,195.329-117.83c60.976-43.192,118.713-91.188,169.357-145.619
					C1969.349,1780.524,1987.284,1796.648,1976.314,1809.134L1976.314,1809.134z"/>
			</g>
			<g>
				<g>
					<path style="fill:#7DBC57;" d="M1584.968,2078.302c-132.75-13.722-236.34-63.025-156.802-107.464
						c-53.655-38.854-123.033-55.158-134.234-85.392c-9.621-25.968,4.518-48.97,39.875-57.996
						c-83.597-150.068,82.333-244.223,172.066-95.851c43.645-92.789,96.895,10.743,87.883,138.184
						c33.974-22.593,58.737-8.594,75.549,36.997c13.815,37.463,17.491,99.212,26.033,173.611l51.058,102.152
						c74.688-12.362,115.717,30.172,83.258,192.558c91.04,27.058,13.876,145.238-26.828,333.956
						c-15.726-139.688-130.636-253.798-76.707-289.552c-73.892-44.81-74.837-83.582-39.323-119.336L1584.968,2078.302z"/>
				</g>
				<g style="opacity:0.6;">
					<path style="fill:#FFFFFF;" d="M1357.562,1813.485c-7.234-86.981,31.433-115.963,127.65-72.157
						C1409.367,1650.67,1308.238,1682.913,1357.562,1813.485z"/>
				</g>
				<g>
					<path style="fill:#41A346;" d="M1667.621,2102.024c-12.356-117.668-20.932-205.462-71.519-195.461
						c-5.855,1.158-11.842,1.583-17.732,0.614l-2.654-0.437c-8.944-1.471-15.336-9.46-14.882-18.512
						c3.054-60.862-0.268-105.661-14.555-122.849c-13.458,100.688-68.879,147.567-176.383,127.662l88.777,52.058
						c12.867,7.545,17.28,23.216,12.051,37.185c-11.745,31.382,43.68,61.35,121.808,90.84l35.77,28.899l14.999,11.805
						L1667.621,2102.024z"/>
				</g>
				<g>
					<path style="fill:#41A346;" d="M1787.419,2192.458c0,0,33.588,20.047,29.129,73.085
						c-52.247,18.227-92.625,58.388-122.254,118.411c-13.698-6.302-23.712-19.792-24.669-50.94L1675.45,2157
						c0,0,42.993-14.316,44.178-13.325C1720.812,2144.665,1787.419,2192.458,1787.419,2192.458z"/>
				</g>
				<g>
					<path style="fill:#3A3A3A;" d="M1398.152,1748.262c148.794,221.277,385.499,431.315,412.931,708.634
						c3.611,39.633,3.474,79.528-1.107,118.832c-0.156,1.392-1.41,2.392-2.802,2.236c-1.323-0.149-2.294-1.314-2.25-2.622
						c17.312-326.95-242.769-539.373-398.223-797.417c0.001,0-15.13-25.469-15.13-25.469c-1.101-1.853-0.491-4.248,1.364-5.352
						C1394.716,1746.045,1397.007,1746.574,1398.152,1748.262L1398.152,1748.262z"/>
				</g>
				<g>
					<path style="fill:#3A3A3A;" d="M1802.833,2721.493c-0.21,0-0.42-0.005-0.63-0.015c-6.086-0.308-11.055-4.976-11.736-11.03
						c-6.985-62.031-34.875-120.293-57.288-167.104c-24.89-51.992-45.31-94.648-26.875-121.758
						c-33.584-22.764-51.392-45.562-54.312-69.419c-2.236-18.262,4.5-36.519,20.027-54.375l-95.413-207.891
						c-82.61-9.404-178.809-35.522-187.942-79.839c-2.119-10.281-0.205-24.575,17.263-39.16
						c-17.529-10.923-36.182-20.054-53.088-28.328c-34.81-17.039-62.305-30.498-70.571-52.808
						c-5.51-14.875-4.91-29.438,1.738-42.117c6.182-11.785,17.141-21.096,32.087-27.388
						c-37.036-77.659-10.786-138.281,31.509-162.844c42.263-24.543,107.458-17.839,157.378,50.393
						c16.311-24.021,32.82-26.333,44.712-23.225c38.567,10.059,58.562,89.46,57.38,164.792c10.532-3.379,20.574-3.538,30.017-0.457
						c18.462,6.023,32.817,23.54,43.884,53.552c11.333,30.737,15.896,74.441,21.672,129.771c1.484,14.224,3.037,29.106,4.797,44.551
						l46.089,92.207c31.711-3.481,56.27,3.555,73.113,20.967c28.293,29.253,33.955,87.217,17.236,177.026
						c14.905,6.333,25.537,15.664,32.327,28.315c19.461,36.25,2.261,92.529-21.543,170.42
						c-13.071,42.783-27.891,91.27-39.683,145.947C1813.744,2717.43,1808.658,2721.493,1802.833,2721.493z M1396.395,1669.401
						c-13.386,0-25.806,3.435-36.299,9.529c-34.495,20.032-54.036,73.157-15.425,142.468c1.88,3.372,2.085,7.422,0.562,10.967
						c-1.526,3.545-4.609,6.182-8.35,7.136c-15.274,3.899-26.228,10.896-30.847,19.704c-3.33,6.348-3.479,13.723-0.442,21.919
						c4.81,12.983,30.735,25.674,58.184,39.109c22.722,11.123,48.479,23.728,71.682,40.532c3.44,2.49,5.369,6.563,5.122,10.801
						c-0.249,4.241-2.644,8.059-6.35,10.129c-7.014,3.918-23.123,14.038-21.204,23.342c4.353,21.123,71.816,50.41,173.218,60.889
						c4.377,0.454,8.188,3.184,10.024,7.188l101.829,221.87c2.163,4.712,1.174,10.273-2.481,13.95
						c-14.292,14.39-20.486,27.539-18.935,40.21c2.266,18.521,21.069,38.613,55.884,59.727c3.642,2.207,5.901,6.128,5.986,10.386
						c0.085,4.258-2.012,8.262-5.562,10.615c-19.185,12.72-3.901,47.324,22.625,102.729c16.455,34.375,35.762,74.702,48.267,118.848
						c8.865-33.657,18.313-64.57,26.997-92.988c21.216-69.424,37.974-124.263,23.413-151.387
						c-5.088-9.478-14.043-15.85-28.184-20.049c-6.162-1.831-9.914-8.057-8.652-14.36c17.192-86.016,14.27-141.665-8.689-165.4
						c-12.59-13.013-32.339-17.09-60.342-12.451c-5.378,0.894-10.718-1.831-13.157-6.709l-51.057-102.153
						c-0.649-1.299-1.065-2.7-1.23-4.141c-1.873-16.309-3.511-32.012-5.076-46.982c-5.373-51.477-10.015-95.935-20.271-123.748
						c-8.032-21.782-17.805-35.1-28.259-38.511c-7.717-2.51-17.388,0.027-28.733,7.568c-3.95,2.625-9.053,2.781-13.144,0.391
						c-4.099-2.385-6.484-6.895-6.15-11.624c6.277-88.753-18.677-155.227-37.935-160.249c-7.151-1.894-17.222,8.955-26.287,28.235
						c-1.953,4.15-6.028,6.89-10.608,7.126c-4.468,0.3-8.916-2.058-11.289-5.984
						C1465.453,1688.8,1428.202,1669.401,1396.395,1669.401z"/>
				</g>
			</g>
			<g>
				<g>
					<path style="fill:#FFFFFF;" d="M1584.968,2078.302c143.777,90.042,189.011,227.394,82.654,246.69
						C1567.699,2332.392,1485.213,2192.458,1584.968,2078.302z"/>
				</g>
				<g>
					<path style="fill:#E2DEDE;" d="M1718.943,2252.592c-53.019,55.505-159.858-4.817-154.161-95.592
						C1525.928,2301.313,1732.99,2394.946,1718.943,2252.592z"/>
				</g>
				<g>
					<path style="fill:#3A3A3A;" d="M1660.096,2337.704c-47.483,0-92.437-29.561-116.233-77.192
						c-30.664-61.382-18.799-132.559,31.738-190.396c4.019-4.6,10.791-5.591,15.967-2.358
						c97.725,61.206,157.559,147.715,145.505,210.386c-6.028,31.328-29.905,52.314-67.234,59.082
						c-0.43,0.078-0.864,0.137-1.301,0.166C1665.721,2337.601,1662.901,2337.704,1660.096,2337.704z M1587.511,2094.72
						c-37.881,48.325-45.979,105.464-21.396,154.673c20.566,41.157,59.746,65.918,99.937,63.237
						c26.887-5.039,42.563-18.223,46.597-39.189C1720.748,2231.327,1679.532,2155.458,1587.511,2094.72z"/>
				</g>
				<g>
					<path style="fill:#3A3A3A;" d="M1712.835,2206.929c-5.437,33.139-50.424,41.951-71.15,18.154
						c-0.957-1.078-0.859-2.729,0.219-3.688c0.856-0.761,2.073-0.853,3.018-0.322c10.607,5.562,22.994,7.47,34.303,4.485
						c11.184-2.917,19.05-10.927,23.218-21.695C1704.822,2197.831,1714.121,2200.625,1712.835,2206.929L1712.835,2206.929z"/>
				</g>
				<g>
					<path style="fill:#3A3A3A;" d="M1724.182,2256.629c-5.437,33.139-50.423,41.951-71.15,18.154
						c-0.958-1.078-0.859-2.729,0.219-3.688c0.855-0.76,2.073-0.854,3.016-0.322c10.609,5.562,22.993,7.471,34.304,4.485
						c11.182-2.917,19.05-10.928,23.218-21.695C1716.167,2247.531,1725.468,2250.323,1724.182,2256.629L1724.182,2256.629z"/>
				</g>
			</g>
			<g>
				<g>
					<path style="fill:#FFFFFF;" d="M2094.379,1001.502c31.743-182.031-39.917-312.738-197.352-400.87
						c-150.219-72.144-344.2-81.446-435.802-165.366c-12.484-11.437-32.986-5.029-36.738,11.481
						c-22.181,97.608,32.22,249.523,174.046,333.969c152.948,77.707,267.028,122.111,342.898,236.514L2094.379,1001.502z"/>
				</g>
				<g>
					<path style="fill:#E2DEDE;" d="M1575.266,756.421c0,0,219.222,120.878,344.583,92.508
						c125.36-28.369,10.77-188.717,10.77-188.717s159.525,94.73,160.494,237.933l-91.039,79.564l-69.454,8.684
						c0,0-110.521-93.5-184.391-131.164C1672.358,817.564,1575.266,756.421,1575.266,756.421z"/>
				</g>
				<g>
					<path style="fill:#F9AADD;" d="M1991.388,986.393c-100.663-261.725-437.835-243.732-480.935-435.118
						c-2.22-9.86,8.333-17.853,17.289-13.168c186.171,97.393,512.832,110.898,515.451,396.481L1991.388,986.393z"/>
				</g>
				<g>
					<path style="fill:#3A3A3A;" d="M1941.429,1032.777c-5.176,0-10.056-2.583-12.954-6.955
						c-63.218-95.322-152.656-139.644-276.448-200.984c-19.473-9.651-39.612-19.631-60.535-30.261
						c-0.31-0.156-0.615-0.325-0.913-0.503c-149.299-88.894-204.814-247.073-181.253-350.772
						c3.003-13.215,12.581-23.54,25.618-27.615c13.035-4.07,26.789-1.04,36.78,8.115c50.164,45.955,135.972,69.165,226.819,93.738
						c69.094,18.691,140.542,38.018,205.215,69.077c0.293,0.139,0.581,0.29,0.864,0.449
						c167.944,94.018,236.941,234.353,205.071,417.107c-1.196,6.855-6.802,12.083-13.726,12.793l-152.947,15.727
						C1942.489,1032.75,1941.957,1032.777,1941.429,1032.777z M2094.378,1001.503h0.051H2094.378z M1606.046,767.096
						c20.618,10.471,40.53,20.337,59.788,29.88c120.132,59.529,215.669,106.868,283.237,203.84l131.88-13.562
						c24.983-164.685-37.617-286.738-191.094-372.82c-61.982-29.697-131.858-48.601-199.434-66.88
						c-94.602-25.588-183.957-49.758-239.702-100.828c-2.493-2.283-5.379-1.716-6.501-1.362c-1.125,0.352-3.821,1.526-4.57,4.827
						C1418.241,544.403,1474.63,688.605,1606.046,767.096z"/>
				</g>
				<g>
					<path style="fill:#3A3A3A;" d="M1622.99,691.312c-49.831-27.531-99.955-68.049-117.35-125.403
						c-1.426-5.087-3.151-10.223-3.971-15.478c-1.849-15.131,15.443-27.381,29.16-20.622
						c72.692,36.142,151.422,57.951,228.739,86.335c97.918,35.84,203.904,82.582,257.994,177.143
						c24.273,42.744,35.062,92.652,35.477,141.211c0.027,2.725-1.058,5.203-2.833,7.002c-17.221,17.348-34.682,34.458-52.042,51.668
						c-4.706,4.926-13.434,3.058-15.718-3.335c-13.624-35.798-32.981-69.2-57.183-98.923c-24.29-30.096-53.365-55.984-84.233-79.404
						c-4.504-3.444,0.332-10.291,5.06-7.402c50.996,31.256,96.52,73.068,127.541,124.67c10.52,17.202,19.288,35.449,26.699,54.18
						l-15.717-3.335c17.192-17.344,34.286-34.785,51.616-51.992l-2.883,7.053c-0.459-90.526-37.209-164.771-110.672-217.66
						c-98.833-69.921-219.769-95.265-330.798-139.948c-22.158-8.6-44.422-18.704-65.605-29.775c0,0-1.61-0.823-1.61-0.823
						c-1.064-0.52-1.26-0.713-2.067-0.884c-1.744-0.338-4.183,1.532-3.833,3.318c11.888,59.969,59.212,101.939,109.266,134.084
						C1633.278,686.391,1628.306,694.326,1622.99,691.312L1622.99,691.312z"/>
				</g>
				<g>
					<path style="fill:#FFFFFF;" d="M2272.986,1798.107c-31.902,9.017-66.29,16.479-103.229,22.014l-119.647,18.532
						c-47.572,5.659-91.227,5.596-131.026,0.808c-444.321-53.915-411.673-708.986,42.224-858.668
						c299.178-88.926,452.654,78.292,537.787,365.718C2642.373,1501.354,2560.66,1716.269,2272.986,1798.107z"/>
				</g>
				<g>
					<path style="fill:#E2DEDE;" d="M2273.048,1798.045l-0.062,0.062c-31.902,9.017-66.29,16.479-103.229,22.014l-119.647,18.532
						c-47.572,5.659-91.227,5.596-131.026,0.808l0.746-1.244c-203.349-44.09-302.785-206.334-285.995-407.569
						c41.602,470.999,827.948,364.723,906.614,87.869C2544.74,1634.681,2449.16,1726.282,2273.048,1798.045z"/>
				</g>
				<g>
					<path style="fill:#E2DEDE;" d="M1942.05,1014.211c0,0-77.541,31.453-107.761,67.223c0,0,21.585,57.972,36.387,57.355
						C1885.478,1138.172,1932.017,1082.667,1942.05,1014.211z"/>
				</g>
				<g>
					<path style="fill:#E2DEDE;" d="M1721.429,1183.821c0,0-37.62,58.038-51.805,106.104
						c-14.185,48.066,81.407-40.126,107.31-97.481L1721.429,1183.821z"/>
				</g>
				<g>
					<path style="fill:#3A3A3A;" d="M2051.085,1846.678c-129.547,19.893-275.76-6.919-366.46-108.398
						c-91.792-100.101-114.483-247.028-86.211-376.536c51.119-245.45,276.519-427.513,527.87-420.058
						c224.621,6.929,332.362,208.695,388.544,400.137c0.001-0.001-3.685-6.476-3.685-6.476
						c24.435,26.274,44.747,57.358,57.897,91.336c12.729,34.372,18.068,71.973,13.266,108.415
						c-27.095,188.825-244.253,274.243-411.422,292.417c-9.582,0.816-11.584-12.844-2.217-14.78
						c88.249-16.926,174.974-43.995,250.033-93.362c68.668-44.519,127.614-114.464,133.086-198.503
						c3.693-60.784-23.66-119.076-64.718-163.252c-1.769-1.915-2.999-4.127-3.686-6.477
						c-24.333-81.108-55.389-160.923-102.639-229.719c-46.255-68.089-113.432-123.178-194.698-140.729
						c-60.66-13.969-124.359-8.5-184.49,5.819c-184.233,41.9-332.886,197.962-371.631,382.054
						c-37.054,162.567,14.93,348.97,173.368,425.279c37.387,18.436,78.084,29.527,119.453,35.135
						c41.635,5.655,84.161,5.269,126.433,1.599C2059.65,1829.691,2061.36,1845.084,2051.085,1846.678L2051.085,1846.678z"/>
				</g>
				<g>
					<g>
						<g>
							<ellipse style="fill:#3A3A3A;" cx="2016.52" cy="1461.655" rx="96.671" ry="102.685"/>
						</g>
						<g>
							<ellipse style="fill:#FFFFFF;" cx="2050.131" cy="1430.665" rx="26.365" ry="30.99"/>
						</g>
						<g style="opacity:0.6;">
							<ellipse style="fill:#FFFFFF;" cx="2017.83" cy="1527.259" rx="16.343" ry="12.412"/>
						</g>
					</g>
					<g>
						<g>
							
								<ellipse transform="matrix(0.9416 -0.3366 0.3366 0.9416 -317.8761 884.5201)" style="fill:#3A3A3A;" cx="2391.896" cy="1358.971" rx="84.684" ry="97.252"/>
						</g>
						<g>
							
								<ellipse transform="matrix(0.9416 -0.3366 0.3366 0.9416 -304.194 888.3356)" style="fill:#FFFFFF;" cx="2409.74" cy="1321.421" rx="23.096" ry="29.351"/>
						</g>
						<g style="opacity:0.6;">
							<path style="fill:#FFFFFF;" d="M2427.375,1412.272c2.186,6.113-2.078,13.227-9.524,15.888
								c-7.445,2.662-15.252-0.136-17.438-6.249s2.078-13.227,9.524-15.888C2417.382,1403.361,2425.189,1406.159,2427.375,1412.272z
								"/>
						</g>
					</g>
					<g>
						<path style="fill:#3A3A3A;" d="M1978.186,1250.013c11.032,14.073-2.026,42.73-29.166,64.006
							c-27.141,21.277-62.642,29.712-69.118,13.044c-5.305-13.653,17.704-24.595,40.641-50.348
							C1946.907,1247.113,1967.154,1235.94,1978.186,1250.013z"/>
					</g>
					<g>
						<path style="fill:#3A3A3A;" d="M2338.887,1157.478c-3.887,17.454,13.839,36.253,39.592,41.989
							c25.754,5.736,53.823-3.651,53.67-21.218c-0.125-14.389-19.903-13.072-43.919-24.688
							C2360.625,1140.21,2342.774,1140.023,2338.887,1157.478z"/>
					</g>
					<g>
						<path style="fill:#3A3A3A;" d="M2245.199,1489.814c20.559-9.736,42.551-14.305,65.586-15.114
							c9.56-0.336,16.823,9.229,13.461,18.185c-4.923,13.113-17.166,27.461-35.138,33.43c-2.049,0.681-4.323,0.775-6.452,0.418
							c-17.526-2.935-29.879-7.228-38.533-12.491C2234.653,1508.481,2235.182,1494.557,2245.199,1489.814z"/>
					</g>
					<g>
						<path style="fill:#3A3A3A;" d="M2293.531,1517.674c1.21,8.288,1.157,16.631-0.324,24.985
							c-0.319,1.504-1.797,2.466-3.301,2.146c-0.851-0.181-1.533-0.742-1.904-1.46c-3.6-7.682-5.816-15.727-6.801-24.043
							C2280.662,1511.506,2292.036,1510.051,2293.531,1517.674L2293.531,1517.674z"/>
					</g>
					<g>
						<path style="fill:#3A3A3A;" d="M2295.458,1555.499c4.903,11.404,6.117,24.19,3.849,36.335
							c-0.367,1.697-2.039,2.773-3.736,2.407c-1.389-0.3-2.364-1.482-2.47-2.83l-0.665-8.586c-0.409-5.686-1.002-11.342-1.758-16.99
							l-1.129-8.396l-0.026-0.19C2288.958,1553.795,2294.09,1552.327,2295.458,1555.499L2295.458,1555.499z"/>
					</g>
					<g>
						<path style="fill:#3A3A3A;" d="M2294.386,1610.401c-28.013,41.593-27.681,61.941-3.546,64.448
							C2321.214,1672.999,2315.611,1644.938,2294.386,1610.401z"/>
					</g>
					<g>
						<path style="fill:#3A3A3A;" d="M2290.841,1677.96c-0.107,0-0.215-0.007-0.322-0.017c-9.556-0.994-15.884-4.666-18.806-10.918
							c-5.295-11.331,1.277-30.42,20.095-58.359c0.591-0.877,1.536-1.455,2.644-1.372c1.057,0.022,2.029,0.579,2.583,1.479
							c16.418,26.716,21.672,46.17,15.615,57.82c-3.579,6.882-10.852,10.703-21.621,11.36
							C2290.968,1677.958,2290.904,1677.96,2290.841,1677.96z M2294.256,1616.229c-18.862,29.036-19.692,42.207-16.909,48.162
							c1.936,4.146,6.375,6.548,13.56,7.339c8.293-0.552,13.75-3.245,16.226-8.005
							C2311.686,1654.967,2307.115,1638.197,2294.256,1616.229z"/>
					</g>
					<g>
						<ellipse style="fill:#F995D1;" cx="2290.84" cy="1660.664" rx="12.797" ry="9.251"/>
					</g>
				</g>
				<g>
					<path style="fill:#FFFFFF;" d="M1849.542,1117.524c-108.852-213.695-312.37-303.736-602.231-195.193
						c-85.108,32.07-164.048,65.373-262.724,65.373c-112.244,4.934,16.035,134.446,212.153,156.222
						c188.717,22.628,388.889-9.516,531.616,39.896"/>
				</g>
				<g>
					<path style="fill:#E2DEDE;" d="M1252.653,998.02c232.862-136.661,429.923-59.049,483.945,99.318
						C1662.254,974.741,1506.15,914.399,1252.653,998.02z"/>
				</g>
				<g>
					<path style="fill:#3A3A3A;" d="M1842.32,1121.202c-101.746-185.654-267.941-260.904-474.543-216.996
						c-114.983,22.109-218.279,86.318-336.664,96.768c-9.968,1.141-20.099,1.604-30.05,2.071
						c-11.256,0.332-27.127-0.327-37.413,4.199c-1.446,0.571-2.464,1.252-3.374,1.814c-1.757,1.733-2.058,1.198-1.812,4.394
						c5.336,18.322,24.233,32.305,39.581,43.899c77.755,54.428,174.71,71.468,267.995,76.165
						c115.832,7.479,234.17-0.461,349.686,14.751c39.048,5.132,78.174,13.619,115.073,28.492c3.833,1.543,5.687,5.903,4.143,9.736
						c-1.44,3.574-5.331,5.427-8.958,4.407c-74.034-20.845-151.518-21.541-228.147-21.98c-92.277-0.339-201.4,3.07-292.589-7.673
						c-88.593-9.266-182.194-37.596-249.769-98.206c-39.753-35.819-41.119-84.832,21.7-90.497
						c5.051-0.639,17.383-0.667,22.653-0.849c47.228-1.772,93.062-11.85,138.372-26.68c73.473-24.295,145.927-58.273,223.063-72.777
						c117.065-25.091,247.203-12.727,346.822,58.015c41.287,28.88,76.053,65.462,104.649,106.378
						c16.741,24.497,31.464,50.41,44.026,77.21c1.943,4.035,0.246,8.879-3.787,10.823
						C1849.051,1126.561,1844.35,1124.986,1842.32,1121.202L1842.32,1121.202z"/>
				</g>
				<g>
					<path style="fill:#F9AADD;" d="M1728.023,1129.849c11.907,4.447,22.647-8.546,16.337-19.579
						c-71.822-125.589-187.615-160.879-327.912-145.848c-122.111,15.418-254.732,67.563-396.245,70.923
						c107.618,67.531,257.918,77.553,432.94,62.906C1553.983,1083.55,1661.726,1105.088,1728.023,1129.849z"/>
				</g>
				<g>
					<path style="fill:#3A3A3A;" d="M1452.441,1093.438c93.053-15.502,189.808-3.565,278.569,27.458
						c3.465,1.622,6.87-2.396,5.22-5.431c-0.132-0.229-0.087-0.332-0.583-1.072l-2.222-3.538
						c-4.214-6.508-8.951-14.874-13.573-21.035c-65.493-95.116-165.479-125.355-276.872-118.288
						c-50.728,3.609-100.765,15.321-150.33,27.006c-89.15,21.4-179.641,44.453-272.252,44.956c0,0,4.138-15.054,4.138-15.054
						c29.799,19.852,62.897,34.667,96.716,46.448c2.34,0.82,3.574,3.381,2.755,5.72c-0.763,2.183-3.066,3.396-5.267,2.888
						c-8.965-2.114-17.854-4.592-26.659-7.385c-26.598-8.295-52.134-19.647-76.21-33.862c-6.739-4.044-4.196-15.125,4.14-15.051
						c45.135-2.371,90.055-8.45,134.611-17.4c94.674-18.119,190.645-49.772,287.189-56.915
						c110.444-7.282,213.85,20.635,283.591,111.55c1.114,1.804,11.863,16.129,12.992,17.89c4.237,6.87,9.646,15.639,13.868,22.52
						c9.925,15.311-2.744,37.057-21.064,35.263c-3.775-0.201-7.423-1.791-10.733-2.951c-42.171-15.32-86.504-25.752-131.294-31.589
						c-22.395-3.037-44.967-4.863-67.568-5.276c-22.604-0.571-45.238,0.374-67.758,2.773
						C1447.666,1103.674,1446.338,1094.621,1452.441,1093.438L1452.441,1093.438z"/>
				</g>
				<g>
					<path style="fill:#3A3A3A;" d="M1482.642,1671.275c77.751-65.69,188.971-86.761,286.921-62.517
						c11.243,2.96,7.915,19.854-3.682,18.181c-95.7-16.079-194.633,0.669-278.099,51.483
						C1483.311,1681.216,1478.483,1674.7,1482.642,1671.275L1482.642,1671.275z"/>
				</g>
				<g>
					<path style="fill:#3A3A3A;" d="M1537.678,1867.132c54.778-85.789,154.753-138.882,255.488-144.768
						c11.614-0.509,13.443,16.615,1.873,18.455c-96.166,13.014-185.685,58.339-250.334,131.615
						C1541.263,1876.424,1534.721,1871.636,1537.678,1867.132L1537.678,1867.132z"/>
				</g>
				<g>
					<path style="fill:#3A3A3A;" d="M2538.006,1392.095c45.953-36.987,105.097-59.631,164.352-59.612
						c5.026,0.023,6.015,7.409,1.151,8.726c-13.862,3.967-27.492,7.913-40.886,12.356c-26.712,8.822-52.454,19.731-77.26,32.888
						c-12.408,6.551-24.532,13.652-36.738,20.847C2538.823,1412.989,2529.288,1399.314,2538.006,1392.095L2538.006,1392.095z"/>
				</g>
				<g>
					<path style="fill:#3A3A3A;" d="M2573.465,1513.331c42.147-14.538,91.068-11.558,130.769,8.952
						c4.283,2.223,2.196,8.99-2.571,8.413c-10.73-1.109-21.173-2.329-31.552-3.174c-30.929-2.835-61.469-0.89-92.108,3.799
						C2566.957,1532.932,2563.013,1517.098,2573.465,1513.331L2573.465,1513.331z"/>
				</g>
				<g>
					<path style="fill:#FFFFFF;" d="M1942.05,1004.894c29.69-49.412,69.075-91.384,118.927-125.321
						c13.772-9.375,32.108,2.028,30.134,18.571c-3.645,30.549-11.167,58.771-5.654,88.248
						c38.587-39.107,86.086-60.236,136.183-66.472c15.721-1.957,27.157,14.504,19.688,28.476
						c-12.053,22.548-25.106,43.886-25.454,68.832"/>
				</g>
				<g>
					<path style="fill:#3A3A3A;" d="M1936.492,1001.556c22.998-47.263,58.395-88.455,100.202-120.327
						c6.121-4.61,12.187-9.369,18.653-13.479c8.001-4.964,18.5-5.889,27.242-2.641c14.891,4.919,24.213,21.558,21.101,37.012
						c0.001,0-1.399,9.763-1.399,9.763c-3.73,24.328-8.866,48.456-4.567,72.214c0,0-21.149-6.47-21.149-6.47
						c33.428-33.952,77.016-58.337,123.882-67.563c10.027-1.415,20.275-4.523,30.404-2.408
						c18.801,3.657,30.576,25.862,22.424,43.311c-11.835,22.139-27.833,42.663-31.431,66.345c-0.493,3.331-3.625,5.629-6.951,5.073
						c-11.069-1.704-3.011-34.365-0.562-41.655c4.216-13.018,9.952-24.465,15.567-36.074c4.097-6.518-0.804-13.669-8.419-11.614
						c-47.654,6.602-93.394,27.433-127.147,62.115c-6.698,7.199-19.637,3.134-21.15-6.471c-5.826-30.373,1.224-60.356,4.741-89.799
						c0.237-1.325,0.463-3.475,0.085-4.746c-0.747-3.979-6.385-6.324-9.686-3.777c-26.199,17.446-50.268,37.819-72.332,60.324
						c-17.368,17.861-33.416,37.127-48.392,57.544C1943.091,1014.529,1933.007,1008.651,1936.492,1001.556L1936.492,1001.556z"/>
				</g>
			</g>
			<g>
				<g>
					<path style="fill:#FFFFFF;" d="M1728.202,2064.58c-134.137,50.417-92.256,179.406-16.652,95.746
						c30.528,39.779,82.261,42.162,104.997,9.713"/>
				</g>
				<g>
					<path style="fill:#3A3A3A;" d="M1729.913,2069.132c-25.079,12.984-48.441,28.134-64.946,50.595
						c-33.1,48.613-4.605,84.436,39.443,34.147c3.941-4.452,11.199-4.137,14.775,0.594c21.485,28.6,66.511,40.7,93.692,12.997
						c3.451-3.68,9.623,0.671,7.343,5.148c-25.58,46.482-89.738,31.541-116.302-6.429c-0.001,0.001,14.771,0.594,14.771,0.594
						c-10.935,11.397-23.498,22.747-39.23,28.032c-38.437,12.713-56.141-26.207-44.938-57.903
						c6.463-20.743,20.796-37.583,37.332-50.703c16.55-12.485,35.307-21.121,54.638-26.177c2.614-0.684,5.284,0.881,5.968,3.493
						C1733.055,2065.798,1731.939,2068.125,1729.913,2069.132L1729.913,2069.132z"/>
				</g>
			</g>
			<g>
				<path style="fill:#3A3A3A;" d="M2083.125,2490.992c-41.8,0.277-83.516,7.117-121.845,24.424
					c-2.687,1.192-5.837-0.034-7.005-2.732c-0.97-2.236-0.271-4.775,1.541-6.233c8.771-7.051,18.436-12.998,28.536-18.137
					c30.453-15.156,64.798-22.597,98.773-22.195c6.869,0.122,12.339,5.789,12.217,12.656
					C2095.225,2485.497,2089.788,2490.883,2083.125,2490.992L2083.125,2490.992z"/>
			</g>
			<g>
				<path style="fill:#3A3A3A;" d="M2026.826,2589.373c11.223-7.973,11.962-23.057,7.766-35.51c-0.486-1.45,0.335-3.036,1.818-3.44
					c0.876-0.244,1.785-0.01,2.434,0.53c6.787,5.718,11.061,15.42,9.942,25.376c-0.984,9.983-7.621,19.963-17.594,22.988
					c-2.886,0.865-5.927-0.774-6.791-3.662C2023.649,2593.177,2024.772,2590.686,2026.826,2589.373L2026.826,2589.373z"/>
			</g>
			<g>
				<path style="fill:#3A3A3A;" d="M2080.943,2589.373c11.223-7.973,11.962-23.057,7.765-35.51c-0.487-1.45,0.336-3.036,1.818-3.44
					c0.877-0.244,1.785-0.01,2.434,0.53c6.787,5.718,11.062,15.42,9.941,25.376c-0.983,9.983-7.621,19.963-17.594,22.988
					c-2.885,0.865-5.927-0.774-6.791-3.662C2077.768,2593.177,2078.889,2590.686,2080.943,2589.373L2080.943,2589.373z"/>
			</g>
			<g>
				<path style="fill:#3A3A3A;" d="M2489.438,2095.411c-4.337,31.254-2.454,63.195,22.917,83.93
					c1.645,1.428,2.676,3.308,3.067,5.293c1.897,9.626,5.16,19.097,10.745,24.958c5.442,5.916,12.445,7.243,19.883,4.858
					c6.926-2.513,7.555-10.064,8.488-17.47c0.872-9.597,0.205-20.317,0.792-31.37c0.132-2.544,2.302-4.5,4.847-4.368
					c1.744,0.093,3.214,1.147,3.922,2.619c4.911,10.276,8.1,21.219,8.655,33.469c1.888,25.281-16.364,42.77-42.188,36.408
					c-20.353-5.353-30.304-27.813-33.875-45.322c0,0,3.239,5.439,3.239,5.439c-7.251-5.852-13.799-12.988-18.784-21.245
					c-5.125-8.184-8.188-17.576-9.786-26.894c-2.921-18.882,1.189-37.329,8.761-53.096
					C2482.476,2087.638,2490.24,2089.981,2489.438,2095.411L2489.438,2095.411z"/>
			</g>
		</g>
		<g>
			<g>
				<path style="fill:#FF8E39;" d="M1867.917,3468.98c-40.33,29.27-94.426,29.269-134.747-0.014
					c-122.782-89.169-223.321-365.095-187.95-561.229c23.735-131.231,101.356-229.93,255.315-221.499
					c153.959-8.431,231.672,90.268,255.315,221.499C2091.301,3103.881,1990.761,3379.825,1867.917,3468.98z"/>
			</g>
			<g>
				<path style="fill:#EA6D42;" d="M1587.788,3076.127c140.74,160.377,281.616,169.966,422.615,44.533
					c-66.37,183.071-135.481,344.063-227.381,321.475c-11.409-2.804-21.767-8.811-30.741-16.394
					C1681.1,3365.594,1629.893,3236.558,1587.788,3076.127z"/>
			</g>
			<g style="opacity:0.6;">
				<path style="fill:#FFFFFF;" d="M1595.4,2967.974c54.469-109.816,117.878-205.961,225.509-234.483
					C1654.134,2704.407,1604.319,2838.917,1595.4,2967.974z"/>
			</g>
			<g>
				<path style="fill:#DD5B22;" d="M1568.02,2848.006c63.995-5.146,129.493,0.44,196.312,15.45
					c-70.233,2.906-140.171,16.95-209.717,45.897L1568.02,2848.006z"/>
			</g>
			<g>
				<path style="fill:#DD5B22;" d="M2054.223,3097.78c-68.522-28.561-154.197-43.529-250.81-49.828
					c81.875-13.72,164.741-21.264,250.81-8.861V3097.78z"/>
			</g>
			<g>
				<path style="fill:#DD5B22;" d="M1609.146,3281.072c65.891-20.222,131.783-30.901,197.675-32.037
					c-64.098-18.856-139.962-26.357-227.592-22.502L1609.146,3281.072z"/>
			</g>
			<g>
				<path style="fill:#DD5B22;" d="M1954.749,3370.201c-59.08-13.411-118.159-13.411-177.239,0
					c55.343,7.044,104.646,21.066,145.285,45.1L1954.749,3370.201z"/>
			</g>
			<g>
				<path style="fill:#DD5B22;" d="M2029.385,2820.406c-56.888-18.64-125.671-29.233-208.477-30.34
					c46.952-21.67,98.244-35.254,157.458-34.082C1978.366,2755.985,2033.372,2822.799,2029.385,2820.406z"/>
			</g>
			<g>
				<path style="fill:#A03312;" d="M1800.546,3509.256c-27.393,0-54.773-8.486-78.145-25.459
					c-133.733-97.119-230.427-384.072-195.217-579.312c13.389-74.023,41.702-132.251,84.155-173.081
					c48.023-46.187,111.68-67.573,189.197-63.521c77.561-4.072,141.196,17.329,189.229,63.521
					c42.49,40.85,70.793,99.082,84.124,173.081c35.291,195.254-61.401,482.217-195.205,579.326
					C1855.316,3500.77,1827.926,3509.256,1800.546,3509.256z M1782.193,2704.056c-149.477,0-201.663,111.436-218.938,206.943
					c-35.371,196.147,69.785,462.598,180.686,543.14c33.852,24.585,79.351,24.585,113.208,0.005l0,0
					c110.959-80.527,216.118-346.978,180.664-543.145c-17.856-99.121-73.416-215.474-236.274-206.46
					c-0.669,0.039-1.338,0.039-2.007,0C1793.622,2704.217,1787.826,2704.056,1782.193,2704.056z"/>
			</g>
		</g>
	</g>
</g>
</svg>
