<?xml version="1.0" encoding="UTF-8"?>
<!DOCTYPE svg PUBLIC "-//W3C//DTD SVG 1.1//EN" "http://www.w3.org/Graphics/SVG/1.1/DTD/svg11.dtd">
<svg xmlns="http://www.w3.org/2000/svg" version="1.1" width="512px" height="512px" style="shape-rendering:geometricPrecision; text-rendering:geometricPrecision; image-rendering:optimizeQuality; fill-rule:evenodd; clip-rule:evenodd" xmlns:xlink="http://www.w3.org/1999/xlink">
<g><path style="opacity:0.99" fill="#000000" d="M 30.5,17.5 C 168.667,16.1675 307.001,16.1675 445.5,17.5C 380.353,72.8127 315.353,128.313 250.5,184C 242.5,188.667 234.5,188.667 226.5,184C 161.588,127.914 96.2545,72.4145 30.5,17.5 Z"/></g>
<g><path style="opacity:0.989" fill="#000000" d="M 16.5,27.5 C 17.552,27.3505 18.552,27.5172 19.5,28C 81.9669,80.6344 143.967,133.801 205.5,187.5C 143.172,240.991 80.6721,294.325 18,347.5C 16.5023,240.974 16.0023,134.307 16.5,27.5 Z"/></g>
<g><path style="opacity:0.983" fill="#000000" d="M 457.5,27.5 C 458.496,27.4142 459.329,27.7476 460,28.5C 460.667,100.5 460.667,172.5 460,244.5C 423.388,212.411 380.888,199.911 332.5,207C 322.415,209.356 312.415,211.689 302.5,214C 292.041,205.876 281.874,197.376 272,188.5C 272.893,185.564 274.726,183.064 277.5,181C 337.986,130.343 397.986,79.1767 457.5,27.5 Z"/></g>
<g><path style="opacity:0.976" fill="#000000" d="M 217.5,197.5 C 230.996,205.428 244.496,205.428 258,197.5C 268.009,205.254 277.509,213.588 286.5,222.5C 234.167,252.459 206.834,297.792 204.5,358.5C 146.829,358.833 89.1628,358.5 31.5,357.5C 93.5313,304.159 155.531,250.826 217.5,197.5 Z"/></g>
<g><path style="opacity:0.967" fill="#000000" d="M 352.5,220.5 C 420.094,222.024 465.594,254.357 489,317.5C 503.767,374.619 489.601,423.119 446.5,463C 408.011,493.298 365.011,501.965 317.5,489C 256.367,466.62 224.034,422.787 220.5,357.5C 223.584,298.114 251.917,255.948 305.5,231C 320.773,225.115 336.44,221.615 352.5,220.5 Z M 344.5,256.5 C 388.31,253.323 422.143,269.989 446,306.5C 465.711,345.067 463.711,382.401 440,418.5C 408.341,456.494 368.841,467.994 321.5,453C 300.517,445.02 284.017,431.52 272,412.5C 271.239,402.932 275.406,399.765 284.5,403C 309.219,438.023 342.552,450.357 384.5,440C 429.67,421.503 448.837,388.003 442,339.5C 435.413,311.244 418.913,291.078 392.5,279C 353.752,264.897 320.252,272.73 292,302.5C 281.509,314.978 275.509,329.311 274,345.5C 278.667,340.167 283.333,340.167 288,345.5C 288.667,348.167 288.667,350.833 288,353.5C 281.5,360 275,366.5 268.5,373C 265.5,375 262.5,375 259.5,373C 253.333,366.833 247.167,360.667 241,354.5C 237.798,346.048 240.632,341.881 249.5,342C 251.455,342.953 253.122,344.287 254.5,346C 255.332,346.688 255.998,346.521 256.5,345.5C 262.996,307.51 283.662,280.343 318.5,264C 327.08,260.746 335.746,258.246 344.5,256.5 Z M 354.5,298.5 C 368.259,298.289 377.426,304.622 382,317.5C 382.966,323.13 383.633,328.796 384,334.5C 391.537,337.893 396.537,343.56 399,351.5C 401,367.167 401,382.833 399,398.5C 396.596,407.237 391.096,413.071 382.5,416C 366.167,418 349.833,418 333.5,416C 323.718,412.55 317.884,405.717 316,395.5C 315.066,380.445 315.4,365.445 317,350.5C 319.603,342.898 324.603,337.564 332,334.5C 329.761,315.989 337.261,303.989 354.5,298.5 Z"/></g>
<g><path style="opacity:0.901" fill="#000000" d="M 355.5,314.5 C 359.077,314.205 362.243,315.205 365,317.5C 366.388,322.372 366.888,327.372 366.5,332.5C 360.5,332.5 354.5,332.5 348.5,332.5C 348.21,328.064 348.71,323.73 350,319.5C 351.352,317.251 353.185,315.584 355.5,314.5 Z"/></g>
<g><path style="opacity:0.956" fill="#000000" d="M 339.5,348.5 C 351.838,348.333 364.171,348.5 376.5,349C 379.196,349.69 381.363,351.19 383,353.5C 383.667,367.833 383.667,382.167 383,396.5C 381.833,397.667 380.667,398.833 379.5,400C 366.557,401.589 353.557,401.922 340.5,401C 336.061,400.87 333.228,398.704 332,394.5C 331.333,381.5 331.333,368.5 332,355.5C 333.211,351.666 335.711,349.333 339.5,348.5 Z"/></g>
</svg>
