<?xml version="1.0" encoding="UTF-8"?>
<!DOCTYPE svg PUBLIC "-//W3C//DTD SVG 1.1//EN" "http://www.w3.org/Graphics/SVG/1.1/DTD/svg11.dtd">
<svg xmlns="http://www.w3.org/2000/svg" version="1.1" width="512px" height="512px" style="shape-rendering:geometricPrecision; text-rendering:geometricPrecision; image-rendering:optimizeQuality; fill-rule:evenodd; clip-rule:evenodd" xmlns:xlink="http://www.w3.org/1999/xlink">
<g><path style="opacity:0.994" fill="#000000" d="M 207.5,-0.5 C 239.5,-0.5 271.5,-0.5 303.5,-0.5C 319.49,3.98445 330.657,13.9844 337,29.5C 340.476,39.4265 343.643,49.4265 346.5,59.5C 379.502,59.3334 412.502,59.5 445.5,60C 463.667,64.8333 475.167,76.3333 480,94.5C 480.667,109.833 480.667,125.167 480,140.5C 478.5,144.667 475.667,147.5 471.5,149C 332.793,149.168 194.127,149.668 55.5,150.5C 49.4706,149.902 43.4706,149.069 37.5,148C 34.6667,146.5 32.5,144.333 31,141.5C 30.3333,125.833 30.3333,110.167 31,94.5C 35.8333,76.3333 47.3333,64.8333 65.5,60C 98.4983,59.5 131.498,59.3334 164.5,59.5C 168.191,44.9245 173.358,30.9245 180,17.5C 187.251,8.38726 196.418,2.38726 207.5,-0.5 Z M 217.5,29.5 C 244.543,29.0443 271.543,29.5443 298.5,31C 301.562,32.0608 304.062,33.8941 306,36.5C 309.006,44.0189 311.506,51.6855 313.5,59.5C 274.833,59.5 236.167,59.5 197.5,59.5C 199.494,51.6855 201.994,44.0189 205,36.5C 208.464,32.6898 212.631,30.3564 217.5,29.5 Z"/></g>
<g><path style="opacity:0.994" fill="#000000" d="M 387.5,511.5 C 299.5,511.5 211.5,511.5 123.5,511.5C 103.654,506.482 91.8205,493.816 88,473.5C 79.8324,376.156 71.6658,278.823 63.5,181.5C 191.5,181.5 319.5,181.5 447.5,181.5C 439.334,278.823 431.168,376.156 423,473.5C 419.18,493.816 407.346,506.482 387.5,511.5 Z M 160.5,212.5 C 171.776,210.708 178.276,215.375 180,226.5C 180.667,296.5 180.667,366.5 180,436.5C 176.927,449.786 169.094,453.619 156.5,448C 153.194,444.888 151.361,441.055 151,436.5C 150.333,366.5 150.333,296.5 151,226.5C 151.466,219.874 154.633,215.208 160.5,212.5 Z M 250.5,212.5 C 261.776,210.708 268.276,215.375 270,226.5C 270.667,296.5 270.667,366.5 270,436.5C 266.927,449.786 259.094,453.619 246.5,448C 243.194,444.888 241.361,441.055 241,436.5C 240.333,366.5 240.333,296.5 241,226.5C 241.466,219.874 244.633,215.208 250.5,212.5 Z M 340.5,212.5 C 351.422,211.197 357.922,215.864 360,226.5C 360.667,296.5 360.667,366.5 360,436.5C 356.927,449.786 349.094,453.619 336.5,448C 333.194,444.888 331.361,441.055 331,436.5C 330.333,366.5 330.333,296.5 331,226.5C 331.466,219.874 334.633,215.208 340.5,212.5 Z"/></g>
</svg>
